<mxfile host="app.diagrams.net" modified="2023-05-08T13:34:19.507Z" agent="Mozilla/5.0 (Macintosh; Intel Mac OS X 10_15_7) AppleWebKit/537.36 (KHTML, like Gecko) Chrome/112.0.0.0 Safari/537.36" etag="gWqduBmsi2zEBBP50N9w" version="21.2.9" type="github">
  <diagram name="第 1 页" id="64EU-2JhXtWUbH2v4anR">
    <mxGraphModel dx="1050" dy="582" grid="1" gridSize="10" guides="1" tooltips="1" connect="1" arrows="1" fold="1" page="1" pageScale="1" pageWidth="827" pageHeight="1169" math="0" shadow="0">
      <root>
        <mxCell id="0" />
        <mxCell id="1" parent="0" />
        <mxCell id="YcL_Hn9VU11S4dy8umJO-40" style="edgeStyle=orthogonalEdgeStyle;rounded=0;orthogonalLoop=1;jettySize=auto;html=1;exitX=0.5;exitY=1;exitDx=0;exitDy=0;entryX=0.5;entryY=0;entryDx=0;entryDy=0;" edge="1" parent="1" source="YcL_Hn9VU11S4dy8umJO-1" target="YcL_Hn9VU11S4dy8umJO-2">
          <mxGeometry relative="1" as="geometry" />
        </mxCell>
        <mxCell id="YcL_Hn9VU11S4dy8umJO-57" style="edgeStyle=orthogonalEdgeStyle;orthogonalLoop=1;jettySize=auto;html=1;exitX=1;exitY=0.5;exitDx=0;exitDy=0;entryX=0;entryY=0.5;entryDx=0;entryDy=0;curved=1;" edge="1" parent="1" source="YcL_Hn9VU11S4dy8umJO-1" target="YcL_Hn9VU11S4dy8umJO-10">
          <mxGeometry relative="1" as="geometry" />
        </mxCell>
        <mxCell id="YcL_Hn9VU11S4dy8umJO-59" style="edgeStyle=orthogonalEdgeStyle;orthogonalLoop=1;jettySize=auto;html=1;exitX=1;exitY=0.5;exitDx=0;exitDy=0;entryX=0;entryY=0.25;entryDx=0;entryDy=0;curved=1;" edge="1" parent="1" source="YcL_Hn9VU11S4dy8umJO-1" target="YcL_Hn9VU11S4dy8umJO-7">
          <mxGeometry relative="1" as="geometry" />
        </mxCell>
        <mxCell id="YcL_Hn9VU11S4dy8umJO-60" style="edgeStyle=orthogonalEdgeStyle;orthogonalLoop=1;jettySize=auto;html=1;exitX=1;exitY=0.5;exitDx=0;exitDy=0;entryX=0;entryY=0.5;entryDx=0;entryDy=0;curved=1;" edge="1" parent="1" source="YcL_Hn9VU11S4dy8umJO-1" target="YcL_Hn9VU11S4dy8umJO-8">
          <mxGeometry relative="1" as="geometry" />
        </mxCell>
        <mxCell id="YcL_Hn9VU11S4dy8umJO-61" style="edgeStyle=orthogonalEdgeStyle;orthogonalLoop=1;jettySize=auto;html=1;exitX=1;exitY=0.5;exitDx=0;exitDy=0;entryX=0;entryY=0.5;entryDx=0;entryDy=0;curved=1;" edge="1" parent="1" source="YcL_Hn9VU11S4dy8umJO-1" target="YcL_Hn9VU11S4dy8umJO-9">
          <mxGeometry relative="1" as="geometry" />
        </mxCell>
        <mxCell id="YcL_Hn9VU11S4dy8umJO-62" style="edgeStyle=orthogonalEdgeStyle;orthogonalLoop=1;jettySize=auto;html=1;exitX=1;exitY=0.5;exitDx=0;exitDy=0;entryX=0;entryY=0.25;entryDx=0;entryDy=0;curved=1;" edge="1" parent="1" source="YcL_Hn9VU11S4dy8umJO-1" target="YcL_Hn9VU11S4dy8umJO-11">
          <mxGeometry relative="1" as="geometry" />
        </mxCell>
        <mxCell id="YcL_Hn9VU11S4dy8umJO-63" style="edgeStyle=orthogonalEdgeStyle;orthogonalLoop=1;jettySize=auto;html=1;exitX=1;exitY=0.5;exitDx=0;exitDy=0;entryX=0;entryY=0.5;entryDx=0;entryDy=0;curved=1;" edge="1" parent="1" source="YcL_Hn9VU11S4dy8umJO-1" target="YcL_Hn9VU11S4dy8umJO-12">
          <mxGeometry relative="1" as="geometry" />
        </mxCell>
        <mxCell id="YcL_Hn9VU11S4dy8umJO-64" style="edgeStyle=orthogonalEdgeStyle;orthogonalLoop=1;jettySize=auto;html=1;exitX=1;exitY=0.5;exitDx=0;exitDy=0;entryX=0;entryY=0.5;entryDx=0;entryDy=0;curved=1;" edge="1" parent="1" source="YcL_Hn9VU11S4dy8umJO-1" target="YcL_Hn9VU11S4dy8umJO-13">
          <mxGeometry relative="1" as="geometry" />
        </mxCell>
        <mxCell id="YcL_Hn9VU11S4dy8umJO-65" style="edgeStyle=orthogonalEdgeStyle;orthogonalLoop=1;jettySize=auto;html=1;exitX=1;exitY=0.5;exitDx=0;exitDy=0;entryX=0;entryY=0.5;entryDx=0;entryDy=0;curved=1;" edge="1" parent="1" source="YcL_Hn9VU11S4dy8umJO-1" target="YcL_Hn9VU11S4dy8umJO-29">
          <mxGeometry relative="1" as="geometry" />
        </mxCell>
        <mxCell id="YcL_Hn9VU11S4dy8umJO-1" value="&lt;font style=&quot;font-size: 12px;&quot;&gt;查找数据&lt;br&gt;95%&lt;/font&gt;" style="rounded=1;whiteSpace=wrap;html=1;shadow=0;glass=0;fillColor=#ffcc99;strokeColor=#36393d;direction=east;flipH=0;flipV=1;" vertex="1" parent="1">
          <mxGeometry x="40" y="270" width="80" height="60" as="geometry" />
        </mxCell>
        <mxCell id="YcL_Hn9VU11S4dy8umJO-41" style="edgeStyle=orthogonalEdgeStyle;rounded=0;orthogonalLoop=1;jettySize=auto;html=1;exitX=0.5;exitY=1;exitDx=0;exitDy=0;" edge="1" parent="1" source="YcL_Hn9VU11S4dy8umJO-2" target="YcL_Hn9VU11S4dy8umJO-3">
          <mxGeometry relative="1" as="geometry" />
        </mxCell>
        <mxCell id="YcL_Hn9VU11S4dy8umJO-2" value="&lt;font style=&quot;font-size: 12px;&quot;&gt;处理数据&lt;br&gt;1%&lt;/font&gt;" style="rounded=1;whiteSpace=wrap;html=1;shadow=0;glass=0;fillColor=#ffcc99;strokeColor=#36393d;direction=east;flipH=0;flipV=1;" vertex="1" parent="1">
          <mxGeometry x="40" y="380" width="80" height="60" as="geometry" />
        </mxCell>
        <mxCell id="YcL_Hn9VU11S4dy8umJO-3" value="&lt;font style=&quot;font-size: 12px;&quot;&gt;导出数据&lt;br&gt;4%&lt;/font&gt;" style="rounded=1;whiteSpace=wrap;html=1;shadow=0;glass=0;fillColor=#ffcc99;strokeColor=#36393d;direction=east;flipH=0;flipV=1;" vertex="1" parent="1">
          <mxGeometry x="40" y="500" width="80" height="60" as="geometry" />
        </mxCell>
        <mxCell id="YcL_Hn9VU11S4dy8umJO-43" style="edgeStyle=orthogonalEdgeStyle;rounded=0;orthogonalLoop=1;jettySize=auto;html=1;exitX=0.5;exitY=1;exitDx=0;exitDy=0;entryX=0.5;entryY=0;entryDx=0;entryDy=0;" edge="1" parent="1" source="YcL_Hn9VU11S4dy8umJO-7" target="YcL_Hn9VU11S4dy8umJO-8">
          <mxGeometry relative="1" as="geometry" />
        </mxCell>
        <mxCell id="YcL_Hn9VU11S4dy8umJO-7" value="取订单号分组&lt;br&gt;7%" style="rounded=1;whiteSpace=wrap;html=1;shadow=0;glass=0;fillColor=#dae8fc;strokeColor=#6c8ebf;direction=east;flipH=0;flipV=1;" vertex="1" parent="1">
          <mxGeometry x="260" y="60" width="80" height="60" as="geometry" />
        </mxCell>
        <mxCell id="YcL_Hn9VU11S4dy8umJO-44" style="edgeStyle=orthogonalEdgeStyle;rounded=0;orthogonalLoop=1;jettySize=auto;html=1;exitX=0.5;exitY=1;exitDx=0;exitDy=0;entryX=0.5;entryY=0;entryDx=0;entryDy=0;" edge="1" parent="1" source="YcL_Hn9VU11S4dy8umJO-8" target="YcL_Hn9VU11S4dy8umJO-9">
          <mxGeometry relative="1" as="geometry" />
        </mxCell>
        <mxCell id="YcL_Hn9VU11S4dy8umJO-70" value="" style="edgeStyle=orthogonalEdgeStyle;rounded=0;orthogonalLoop=1;jettySize=auto;html=1;" edge="1" parent="1" source="YcL_Hn9VU11S4dy8umJO-8" target="YcL_Hn9VU11S4dy8umJO-9">
          <mxGeometry relative="1" as="geometry" />
        </mxCell>
        <mxCell id="YcL_Hn9VU11S4dy8umJO-8" value="查还款计划&lt;br&gt;10%" style="rounded=1;whiteSpace=wrap;html=1;shadow=0;glass=0;fillColor=#dae8fc;strokeColor=#6c8ebf;direction=east;flipH=0;flipV=1;" vertex="1" parent="1">
          <mxGeometry x="260" y="140" width="80" height="60" as="geometry" />
        </mxCell>
        <mxCell id="YcL_Hn9VU11S4dy8umJO-47" style="edgeStyle=orthogonalEdgeStyle;rounded=0;orthogonalLoop=1;jettySize=auto;html=1;exitX=0.5;exitY=1;exitDx=0;exitDy=0;entryX=0.5;entryY=0;entryDx=0;entryDy=0;dashed=1;" edge="1" parent="1" source="YcL_Hn9VU11S4dy8umJO-9" target="YcL_Hn9VU11S4dy8umJO-10">
          <mxGeometry relative="1" as="geometry" />
        </mxCell>
        <mxCell id="YcL_Hn9VU11S4dy8umJO-67" style="edgeStyle=orthogonalEdgeStyle;orthogonalLoop=1;jettySize=auto;html=1;exitX=1;exitY=0.5;exitDx=0;exitDy=0;entryX=0;entryY=0.5;entryDx=0;entryDy=0;curved=1;" edge="1" parent="1" source="YcL_Hn9VU11S4dy8umJO-9" target="YcL_Hn9VU11S4dy8umJO-21">
          <mxGeometry relative="1" as="geometry" />
        </mxCell>
        <mxCell id="YcL_Hn9VU11S4dy8umJO-68" style="edgeStyle=orthogonalEdgeStyle;rounded=0;orthogonalLoop=1;jettySize=auto;html=1;exitX=1;exitY=0.5;exitDx=0;exitDy=0;entryX=0;entryY=0.5;entryDx=0;entryDy=0;" edge="1" parent="1" source="YcL_Hn9VU11S4dy8umJO-9" target="YcL_Hn9VU11S4dy8umJO-22">
          <mxGeometry relative="1" as="geometry" />
        </mxCell>
        <mxCell id="YcL_Hn9VU11S4dy8umJO-69" style="edgeStyle=orthogonalEdgeStyle;orthogonalLoop=1;jettySize=auto;html=1;exitX=1;exitY=0.5;exitDx=0;exitDy=0;entryX=0;entryY=0.5;entryDx=0;entryDy=0;curved=1;" edge="1" parent="1" source="YcL_Hn9VU11S4dy8umJO-9" target="YcL_Hn9VU11S4dy8umJO-23">
          <mxGeometry relative="1" as="geometry" />
        </mxCell>
        <mxCell id="YcL_Hn9VU11S4dy8umJO-9" value="还款计划详情&lt;br&gt;70%" style="rounded=1;whiteSpace=wrap;html=1;shadow=0;glass=0;fillColor=#dae8fc;strokeColor=#6c8ebf;direction=east;flipH=0;flipV=1;" vertex="1" parent="1">
          <mxGeometry x="260" y="230" width="80" height="60" as="geometry" />
        </mxCell>
        <mxCell id="YcL_Hn9VU11S4dy8umJO-48" style="edgeStyle=orthogonalEdgeStyle;rounded=0;orthogonalLoop=1;jettySize=auto;html=1;exitX=0.5;exitY=1;exitDx=0;exitDy=0;entryX=0.5;entryY=0;entryDx=0;entryDy=0;dashed=1;" edge="1" parent="1" source="YcL_Hn9VU11S4dy8umJO-10" target="YcL_Hn9VU11S4dy8umJO-11">
          <mxGeometry relative="1" as="geometry" />
        </mxCell>
        <mxCell id="YcL_Hn9VU11S4dy8umJO-10" value="放款日期&lt;br&gt;3%" style="rounded=1;whiteSpace=wrap;html=1;shadow=0;glass=0;fillColor=#dae8fc;strokeColor=#6c8ebf;direction=east;flipH=0;flipV=1;" vertex="1" parent="1">
          <mxGeometry x="260" y="320" width="80" height="60" as="geometry" />
        </mxCell>
        <mxCell id="YcL_Hn9VU11S4dy8umJO-49" style="edgeStyle=orthogonalEdgeStyle;rounded=0;orthogonalLoop=1;jettySize=auto;html=1;exitX=0.5;exitY=1;exitDx=0;exitDy=0;entryX=0.5;entryY=0;entryDx=0;entryDy=0;dashed=1;" edge="1" parent="1" source="YcL_Hn9VU11S4dy8umJO-11" target="YcL_Hn9VU11S4dy8umJO-12">
          <mxGeometry relative="1" as="geometry" />
        </mxCell>
        <mxCell id="YcL_Hn9VU11S4dy8umJO-11" value="年利率&lt;br&gt;3%" style="rounded=1;whiteSpace=wrap;html=1;shadow=0;glass=0;fillColor=#dae8fc;strokeColor=#6c8ebf;direction=east;flipH=0;flipV=1;" vertex="1" parent="1">
          <mxGeometry x="260" y="410" width="80" height="60" as="geometry" />
        </mxCell>
        <mxCell id="YcL_Hn9VU11S4dy8umJO-50" style="edgeStyle=orthogonalEdgeStyle;rounded=0;orthogonalLoop=1;jettySize=auto;html=1;exitX=0.5;exitY=1;exitDx=0;exitDy=0;entryX=0.5;entryY=0;entryDx=0;entryDy=0;dashed=1;" edge="1" parent="1" source="YcL_Hn9VU11S4dy8umJO-12" target="YcL_Hn9VU11S4dy8umJO-13">
          <mxGeometry relative="1" as="geometry" />
        </mxCell>
        <mxCell id="YcL_Hn9VU11S4dy8umJO-12" value="减免金额&lt;br&gt;3%" style="rounded=1;whiteSpace=wrap;html=1;shadow=0;glass=0;fillColor=#dae8fc;strokeColor=#6c8ebf;direction=east;flipH=0;flipV=1;" vertex="1" parent="1">
          <mxGeometry x="260" y="490" width="80" height="60" as="geometry" />
        </mxCell>
        <mxCell id="YcL_Hn9VU11S4dy8umJO-51" style="edgeStyle=orthogonalEdgeStyle;rounded=0;orthogonalLoop=1;jettySize=auto;html=1;exitX=0.5;exitY=1;exitDx=0;exitDy=0;entryX=0.5;entryY=0;entryDx=0;entryDy=0;" edge="1" parent="1" source="YcL_Hn9VU11S4dy8umJO-13" target="YcL_Hn9VU11S4dy8umJO-29">
          <mxGeometry relative="1" as="geometry" />
        </mxCell>
        <mxCell id="YcL_Hn9VU11S4dy8umJO-13" value="催收回款金额&lt;br&gt;3%" style="rounded=1;whiteSpace=wrap;html=1;shadow=0;glass=0;fillColor=#dae8fc;strokeColor=#6c8ebf;direction=east;flipH=0;flipV=1;" vertex="1" parent="1">
          <mxGeometry x="260" y="570" width="80" height="60" as="geometry" />
        </mxCell>
        <mxCell id="YcL_Hn9VU11S4dy8umJO-71" style="edgeStyle=orthogonalEdgeStyle;rounded=0;orthogonalLoop=1;jettySize=auto;html=1;exitX=0.5;exitY=1;exitDx=0;exitDy=0;entryX=0.5;entryY=0;entryDx=0;entryDy=0;dashed=1;" edge="1" parent="1" source="YcL_Hn9VU11S4dy8umJO-21" target="YcL_Hn9VU11S4dy8umJO-22">
          <mxGeometry relative="1" as="geometry" />
        </mxCell>
        <mxCell id="YcL_Hn9VU11S4dy8umJO-21" value="RepayDetail&lt;br&gt;30%" style="rounded=1;whiteSpace=wrap;html=1;shadow=0;glass=0;fillColor=#d5e8d4;strokeColor=#82b366;direction=east;flipH=0;flipV=1;" vertex="1" parent="1">
          <mxGeometry x="435" y="120" width="90" height="60" as="geometry" />
        </mxCell>
        <mxCell id="YcL_Hn9VU11S4dy8umJO-72" style="edgeStyle=orthogonalEdgeStyle;rounded=0;orthogonalLoop=1;jettySize=auto;html=1;exitX=0.5;exitY=1;exitDx=0;exitDy=0;entryX=0.5;entryY=0;entryDx=0;entryDy=0;" edge="1" parent="1" source="YcL_Hn9VU11S4dy8umJO-22" target="YcL_Hn9VU11S4dy8umJO-23">
          <mxGeometry relative="1" as="geometry" />
        </mxCell>
        <mxCell id="YcL_Hn9VU11S4dy8umJO-22" value="repayDetailCost&lt;br&gt;50%" style="rounded=1;whiteSpace=wrap;html=1;shadow=0;glass=0;fillColor=#d5e8d4;strokeColor=#82b366;direction=east;flipH=0;flipV=1;" vertex="1" parent="1">
          <mxGeometry x="430" y="230" width="100" height="60" as="geometry" />
        </mxCell>
        <mxCell id="YcL_Hn9VU11S4dy8umJO-23" value="&lt;font style=&quot;font-size: 12px;&quot;&gt;处理数据&lt;br&gt;20%&lt;br&gt;&lt;/font&gt;" style="rounded=1;whiteSpace=wrap;html=1;shadow=0;glass=0;fillColor=#d5e8d4;strokeColor=#82b366;direction=east;flipH=0;flipV=1;" vertex="1" parent="1">
          <mxGeometry x="435" y="340" width="90" height="60" as="geometry" />
        </mxCell>
        <mxCell id="YcL_Hn9VU11S4dy8umJO-29" value="处理数据&lt;br&gt;1%" style="rounded=1;whiteSpace=wrap;html=1;shadow=0;glass=0;fillColor=#dae8fc;strokeColor=#6c8ebf;direction=east;flipH=0;flipV=1;" vertex="1" parent="1">
          <mxGeometry x="260" y="650" width="80" height="60" as="geometry" />
        </mxCell>
        <mxCell id="YcL_Hn9VU11S4dy8umJO-73" value="" style="html=1;shadow=0;dashed=0;align=center;verticalAlign=middle;shape=mxgraph.arrows2.arrow;dy=0.6;dx=40;notch=0;fillColor=#e51400;fontColor=#ffffff;strokeColor=#B20000;" vertex="1" parent="1">
          <mxGeometry x="600" y="370" width="80" height="50" as="geometry" />
        </mxCell>
        <mxCell id="YcL_Hn9VU11S4dy8umJO-101" style="edgeStyle=orthogonalEdgeStyle;rounded=0;orthogonalLoop=1;jettySize=auto;html=1;exitX=0.5;exitY=1;exitDx=0;exitDy=0;entryX=0.5;entryY=0;entryDx=0;entryDy=0;" edge="1" parent="1" source="YcL_Hn9VU11S4dy8umJO-106" target="YcL_Hn9VU11S4dy8umJO-108">
          <mxGeometry relative="1" as="geometry" />
        </mxCell>
        <mxCell id="YcL_Hn9VU11S4dy8umJO-102" style="edgeStyle=orthogonalEdgeStyle;orthogonalLoop=1;jettySize=auto;html=1;exitX=1;exitY=0.5;exitDx=0;exitDy=0;entryX=0;entryY=0.25;entryDx=0;entryDy=0;curved=1;" edge="1" parent="1" source="YcL_Hn9VU11S4dy8umJO-106" target="YcL_Hn9VU11S4dy8umJO-111">
          <mxGeometry relative="1" as="geometry" />
        </mxCell>
        <mxCell id="YcL_Hn9VU11S4dy8umJO-103" style="edgeStyle=orthogonalEdgeStyle;orthogonalLoop=1;jettySize=auto;html=1;exitX=1;exitY=0.5;exitDx=0;exitDy=0;entryX=0;entryY=0.5;entryDx=0;entryDy=0;curved=1;" edge="1" parent="1" source="YcL_Hn9VU11S4dy8umJO-106" target="YcL_Hn9VU11S4dy8umJO-114">
          <mxGeometry relative="1" as="geometry" />
        </mxCell>
        <mxCell id="YcL_Hn9VU11S4dy8umJO-104" style="edgeStyle=orthogonalEdgeStyle;orthogonalLoop=1;jettySize=auto;html=1;exitX=1;exitY=0.5;exitDx=0;exitDy=0;entryX=0;entryY=0.5;entryDx=0;entryDy=0;curved=1;" edge="1" parent="1" source="YcL_Hn9VU11S4dy8umJO-106" target="YcL_Hn9VU11S4dy8umJO-118">
          <mxGeometry relative="1" as="geometry" />
        </mxCell>
        <mxCell id="YcL_Hn9VU11S4dy8umJO-105" style="edgeStyle=orthogonalEdgeStyle;orthogonalLoop=1;jettySize=auto;html=1;exitX=1;exitY=0.5;exitDx=0;exitDy=0;entryX=0;entryY=0.5;entryDx=0;entryDy=0;curved=1;" edge="1" parent="1" source="YcL_Hn9VU11S4dy8umJO-106" target="YcL_Hn9VU11S4dy8umJO-122">
          <mxGeometry relative="1" as="geometry" />
        </mxCell>
        <mxCell id="YcL_Hn9VU11S4dy8umJO-106" value="&lt;font style=&quot;font-size: 12px;&quot;&gt;查找数据&lt;br&gt;95%&lt;/font&gt;" style="rounded=1;whiteSpace=wrap;html=1;shadow=0;glass=0;fillColor=#ffcc99;strokeColor=#36393d;direction=east;flipH=0;flipV=1;" vertex="1" parent="1">
          <mxGeometry x="730" y="265" width="80" height="60" as="geometry" />
        </mxCell>
        <mxCell id="YcL_Hn9VU11S4dy8umJO-107" style="edgeStyle=orthogonalEdgeStyle;rounded=0;orthogonalLoop=1;jettySize=auto;html=1;exitX=0.5;exitY=1;exitDx=0;exitDy=0;" edge="1" parent="1" source="YcL_Hn9VU11S4dy8umJO-108" target="YcL_Hn9VU11S4dy8umJO-109">
          <mxGeometry relative="1" as="geometry" />
        </mxCell>
        <mxCell id="YcL_Hn9VU11S4dy8umJO-108" value="&lt;font style=&quot;font-size: 12px;&quot;&gt;处理数据&lt;br&gt;1%&lt;/font&gt;" style="rounded=1;whiteSpace=wrap;html=1;shadow=0;glass=0;fillColor=#ffcc99;strokeColor=#36393d;direction=east;flipH=0;flipV=1;" vertex="1" parent="1">
          <mxGeometry x="730" y="375" width="80" height="60" as="geometry" />
        </mxCell>
        <mxCell id="YcL_Hn9VU11S4dy8umJO-109" value="&lt;font style=&quot;font-size: 12px;&quot;&gt;导出数据&lt;br&gt;4%&lt;/font&gt;" style="rounded=1;whiteSpace=wrap;html=1;shadow=0;glass=0;fillColor=#ffcc99;strokeColor=#36393d;direction=east;flipH=0;flipV=1;" vertex="1" parent="1">
          <mxGeometry x="730" y="495" width="80" height="60" as="geometry" />
        </mxCell>
        <mxCell id="YcL_Hn9VU11S4dy8umJO-110" style="edgeStyle=orthogonalEdgeStyle;rounded=0;orthogonalLoop=1;jettySize=auto;html=1;exitX=0.5;exitY=1;exitDx=0;exitDy=0;entryX=0.5;entryY=0;entryDx=0;entryDy=0;" edge="1" parent="1" source="YcL_Hn9VU11S4dy8umJO-111" target="YcL_Hn9VU11S4dy8umJO-114">
          <mxGeometry relative="1" as="geometry" />
        </mxCell>
        <mxCell id="YcL_Hn9VU11S4dy8umJO-111" value="取订单号分组&lt;br&gt;7%" style="rounded=1;whiteSpace=wrap;html=1;shadow=0;glass=0;fillColor=#dae8fc;strokeColor=#6c8ebf;direction=east;flipH=0;flipV=1;" vertex="1" parent="1">
          <mxGeometry x="950" y="145" width="80" height="70" as="geometry" />
        </mxCell>
        <mxCell id="YcL_Hn9VU11S4dy8umJO-112" style="edgeStyle=orthogonalEdgeStyle;rounded=0;orthogonalLoop=1;jettySize=auto;html=1;exitX=0.5;exitY=1;exitDx=0;exitDy=0;entryX=0.5;entryY=0;entryDx=0;entryDy=0;" edge="1" parent="1" source="YcL_Hn9VU11S4dy8umJO-114" target="YcL_Hn9VU11S4dy8umJO-118">
          <mxGeometry relative="1" as="geometry" />
        </mxCell>
        <mxCell id="YcL_Hn9VU11S4dy8umJO-113" value="" style="edgeStyle=orthogonalEdgeStyle;rounded=0;orthogonalLoop=1;jettySize=auto;html=1;" edge="1" parent="1" source="YcL_Hn9VU11S4dy8umJO-114" target="YcL_Hn9VU11S4dy8umJO-118">
          <mxGeometry relative="1" as="geometry" />
        </mxCell>
        <mxCell id="YcL_Hn9VU11S4dy8umJO-114" value="查还款计划&lt;br&gt;10%" style="rounded=1;whiteSpace=wrap;html=1;shadow=0;glass=0;fillColor=#dae8fc;strokeColor=#6c8ebf;direction=east;flipH=0;flipV=1;" vertex="1" parent="1">
          <mxGeometry x="950" y="265" width="80" height="60" as="geometry" />
        </mxCell>
        <mxCell id="YcL_Hn9VU11S4dy8umJO-115" style="edgeStyle=orthogonalEdgeStyle;orthogonalLoop=1;jettySize=auto;html=1;exitX=1;exitY=0.5;exitDx=0;exitDy=0;entryX=0;entryY=0.5;entryDx=0;entryDy=0;curved=1;" edge="1" parent="1" source="YcL_Hn9VU11S4dy8umJO-118" target="YcL_Hn9VU11S4dy8umJO-120">
          <mxGeometry relative="1" as="geometry" />
        </mxCell>
        <mxCell id="YcL_Hn9VU11S4dy8umJO-116" style="edgeStyle=orthogonalEdgeStyle;orthogonalLoop=1;jettySize=auto;html=1;exitX=1;exitY=0.5;exitDx=0;exitDy=0;entryX=0;entryY=0.5;entryDx=0;entryDy=0;curved=1;" edge="1" parent="1" source="YcL_Hn9VU11S4dy8umJO-118" target="YcL_Hn9VU11S4dy8umJO-121">
          <mxGeometry relative="1" as="geometry" />
        </mxCell>
        <mxCell id="YcL_Hn9VU11S4dy8umJO-117" style="edgeStyle=orthogonalEdgeStyle;rounded=0;orthogonalLoop=1;jettySize=auto;html=1;exitX=0.5;exitY=1;exitDx=0;exitDy=0;entryX=0.5;entryY=0;entryDx=0;entryDy=0;" edge="1" parent="1" source="YcL_Hn9VU11S4dy8umJO-118" target="YcL_Hn9VU11S4dy8umJO-122">
          <mxGeometry relative="1" as="geometry" />
        </mxCell>
        <mxCell id="YcL_Hn9VU11S4dy8umJO-118" value="并行执行" style="rounded=1;whiteSpace=wrap;html=1;shadow=0;glass=0;fillColor=#dae8fc;strokeColor=#6c8ebf;direction=east;flipH=0;flipV=1;" vertex="1" parent="1">
          <mxGeometry x="950" y="355" width="80" height="190" as="geometry" />
        </mxCell>
        <mxCell id="YcL_Hn9VU11S4dy8umJO-119" style="edgeStyle=orthogonalEdgeStyle;rounded=0;orthogonalLoop=1;jettySize=auto;html=1;exitX=0.5;exitY=1;exitDx=0;exitDy=0;entryX=0.5;entryY=0;entryDx=0;entryDy=0;" edge="1" parent="1" source="YcL_Hn9VU11S4dy8umJO-120" target="YcL_Hn9VU11S4dy8umJO-121">
          <mxGeometry relative="1" as="geometry" />
        </mxCell>
        <mxCell id="YcL_Hn9VU11S4dy8umJO-120" value="并行执行" style="rounded=1;whiteSpace=wrap;html=1;shadow=0;glass=0;fillColor=#d5e8d4;strokeColor=#82b366;direction=east;flipH=0;flipV=1;" vertex="1" parent="1">
          <mxGeometry x="1140" y="345" width="80" height="130" as="geometry" />
        </mxCell>
        <mxCell id="YcL_Hn9VU11S4dy8umJO-121" value="&lt;font style=&quot;font-size: 12px;&quot;&gt;处理数据&lt;br&gt;20%&lt;br&gt;&lt;/font&gt;" style="rounded=1;whiteSpace=wrap;html=1;shadow=0;glass=0;fillColor=#d5e8d4;strokeColor=#82b366;direction=east;flipH=0;flipV=1;" vertex="1" parent="1">
          <mxGeometry x="1135" y="525" width="90" height="60" as="geometry" />
        </mxCell>
        <mxCell id="YcL_Hn9VU11S4dy8umJO-122" value="处理数据&lt;br&gt;1%" style="rounded=1;whiteSpace=wrap;html=1;shadow=0;glass=0;fillColor=#dae8fc;strokeColor=#6c8ebf;direction=east;flipH=0;flipV=1;" vertex="1" parent="1">
          <mxGeometry x="950" y="585" width="80" height="60" as="geometry" />
        </mxCell>
      </root>
    </mxGraphModel>
  </diagram>
</mxfile>
